#!OML:ASF H:\Not Pregnant\Project 1\Capture day 1\Session 1\non-pregnant.ASF
:FULLY-SPECIFIED
:DEGREES
324
root -5.71028 16.3548 34.9317 158.028 -82.5909 -144.543
lowerback -13.0648 3.2217 4.48763
upperback -6.03175 3.44524 -0.342781
thorax 1.25947 1.51424 -2.3975
lowerneck 10.1991 -6.08725 -30.9998
upperneck -7.2976 -11.4402 37.6628
head 0.762751 -7.07637 19.4363
rclavicle -1.13804e-014 7.95139e-015
rhumerus -38.909 25.4625 -106.2
rradius 32.7443
rwrist 18.9761
rhand 1.58319 11.2339
rfingers 7.12502
rthumb 27.1059 -16.84
lclavicle -1.13804e-014 7.95139e-015
lhumerus -41.4122 -8.56378 90.4752
lradius 33.0219
lwrist 49.367
lhand 10.5603 -6.75533
lfingers 7.12502
lthumb 35.6576 19.6446
rfemur 0 0 0
rtibia 0
rfoot 0 0
rtoes 0
lfemur -16.2503 6.01619 -16.7688
ltibia 14.8437
lfoot -13.0897 -4.49731
ltoes -17.9541
325
root -5.7101 16.3548 34.9276 157.852 -82.6069 -144.377
lowerback -13.0492 3.27098 4.47881
upperback -6.02381 3.51418 -0.371055
thorax 1.26584 1.54935 -2.41221
lowerneck 10.2086 -6.12077 -30.9964
upperneck -7.31447 -11.4928 37.7056
head 0.78186 -7.10753 19.4518
rclavicle 1.73937e-015 -1.90833e-014
rhumerus -38.8992 25.7562 -106.265
rradius 32.6172
rwrist 19.4765
rhand 0.638266 10.7786
rfingers 7.12502
rthumb 26.2016 -17.4329
lclavicle 1.73937e-015 -1.90833e-014
lhumerus -41.4031 -8.5703 90.3942
lradius 33.0954
lwrist 49.4358
lhand 10.5461 -6.71653
lfingers 7.12502
lthumb 35.6441 19.6866
rfemur 0 0 0
rtibia 0
rfoot 0 0
rtoes 0
lfemur -16.2501 6.11763 -16.7527
ltibia 14.8513
lfoot -13.1079 -4.63081
ltoes -17.8527
326
root -5.70978 16.3547 34.9234 157.704 -82.6277 -144.237
lowerback -13.0346 3.31603 4.46117
upperback -6.0149 3.57837 -0.395227
thorax 1.27273 1.58231 -2.41835
lowerneck 10.2183 -6.15439 -30.9997
upperneck -7.33166 -11.5463 37.7466
head 0.801522 -7.13877 19.4678
rclavicle -2.52953e-014 -1.82882e-014
rhumerus -38.8558 25.9387 -106.248
rradius 32.4683
rwrist 20.2614
rhand -0.301176 10.3847
rfingers 7.12502
rthumb 25.3019 -17.9572
lclavicle -2.52953e-014 -1.82882e-014
lhumerus -41.3918 -8.59475 90.3339
lradius 33.1594
lwrist 49.3582
lhand 10.5373 -6.73686
lfingers 7.12502
lthumb 35.6358 19.6683
rfemur 0 0 0
rtibia 0
rfoot 0 0
rtoes 0
lfemur -16.2509 6.21812 -16.7428
ltibia 14.8558
lfoot -13.1233 -4.76652
ltoes -17.7655
327
root -5.7093 16.3544 34.9196 157.602 -82.6571 -144.143
lowerback -13.0232 3.35536 4.42796
upperback -6.00519 3.63647 -0.413128
thorax 1.2804 1.61256 -2.40999
lowerneck 10.2334 -6.18724 -31.0118
upperneck -7.35078 -11.6002 37.7822
head 0.820011 -7.16991 19.483
rclavicle 1.07592e-014 3.97569e-016
rhumerus -38.772 26.001 -106.142
rradius 32.2822
rwrist 21.3309
rhand -1.24587 10.0686
rfingers 7.12502
rthumb 24.3965 -18.3982
lclavicle 1.07592e-014 3.97569e-016
lhumerus -41.3801 -8.63032 90.2946
lradius 33.2191
lwrist 49.1775
lhand 10.5545 -6.78633
lfingers 7.12502
lthumb 35.6521 19.6149
rfemur 0 0 0
rtibia 0
rfoot 0 0
rtoes 0
lfemur -16.2545 6.3204 -16.7449
ltibia 14.8597
lfoot -13.1399 -4.91105
ltoes -17.7053
328
root -5.70875 16.3543 34.9159 157.551 -82.6964 -144.1
lowerback -13.0181 3.38809 4.36967
upperback -5.99236 3.68814 -0.42001
thorax 1.29218 1.64027 -2.3767
lowerneck 10.2548 -6.21884 -31.0346
upperneck -7.37484 -11.6533 37.8108
head 0.835893 -7.2002 19.4973
rclavicle 5.0541e-014 1.55052e-014
rhumerus -38.6593 25.9708 -105.955
rradius 32.0691
rwrist 22.629
rhand -2.21358 9.80133
rfingers 7.12502
rthumb 23.4685 -18.7873
lclavicle 5.0541e-014 1.55052e-014
lhumerus -41.3602 -8.65127 90.2699
lradius 33.2837
lwrist 49.003
lhand 10.6182 -6.79416
lfingers 7.12502
lthumb 35.7125 19.5925
rfemur 0 0 0
rtibia 0
rfoot 0 0
rtoes 0
lfemur -16.2539 6.40548 -16.7574
ltibia 14.8554
lfoot -13.1496 -5.05062
ltoes -17.6258
329
root -5.70825 16.3542 34.9115 157.448 -82.7349 -144.006
lowerback -13.0153 3.41821 4.29738
upperback -5.97748 3.73759 -0.415605
thorax 1.30552 1.66728 -2.32401
lowerneck 10.2844 -6.25205 -31.0573
upperneck -7.40461 -11.7091 37.8318
head 0.849062 -7.23178 19.5075
rclavicle -2.22639e-014 -1.70955e-014
rhumerus -38.5199 25.8431 -105.702
rradius 31.8351
rwrist 24.0615
rhand -3.18961 9.5614
rfingers 7.12502
rthumb 22.532 -19.1439
lclavicle -2.22639e-014 -1.70955e-014
lhumerus -41.3365 -8.66907 90.254
lradius 33.3557
lwrist 48.8788
lhand 10.7344 -6.76375
lfingers 7.12502
lthumb 35.8226 19.5962
rfemur 0 0 0
rtibia 0
rfoot 0 0
rtoes 0
lfemur -16.2533 6.48641 -16.7602
ltibia 14.8552
lfoot -13.1592 -5.19158
ltoes -17.5247
